<?xml version="1.0" encoding="UTF-8" standalone="no"?>
<svg xmlns:dc="http://purl.org/dc/elements/1.1/" 
    xmlns:cc="http://creativecommons.org/ns#" 
    xmlns:rdf="http://www.w3.org/1999/02/22-rdf-syntax-ns#" 
    xmlns:svg="http://www.w3.org/2000/svg" 
    xmlns="http://www.w3.org/2000/svg" 
    xmlns:sodipodi="http://sodipodi.sourceforge.net/DTD/sodipodi-0.dtd" 
    xmlns:inkscape="http://www.inkscape.org/namespaces/inkscape" sodipodi:docname="logo.svg" inkscape:version="1.0 (4035a4fb49, 2020-05-01)" id="svg8" version="1.1" viewBox="0 0 166.65025 23.851789" height="23.851789mm" width="166.65025mm">
    <defs id="defs2" />
    <sodipodi:namedview inkscape:window-maximized="1" inkscape:window-y="-8" inkscape:window-x="-8" inkscape:window-height="1017" inkscape:window-width="1920" showgrid="false" inkscape:document-rotation="0" inkscape:current-layer="logo-center" inkscape:document-units="mm" inkscape:cy="47.758036" inkscape:cx="217.61834" inkscape:zoom="1.4" inkscape:pageshadow="2" inkscape:pageopacity="0.0" borderopacity="1.0" bordercolor="#666666" pagecolor="#ffffff" id="base" />
    <metadata id="metadata5">
        <rdf:RDF>
            <cc:Work rdf:about="">
                <dc:format>image/svg+xml</dc:format>
                <dc:type rdf:resource="http://purl.org/dc/dcmitype/StillImage" />
                <dc:title></dc:title>
            </cc:Work>
        </rdf:RDF>
    </metadata>
    <g transform="translate(-33.248524,-49.17917)" id="layer1" inkscape:groupmode="layer" inkscape:label="Réteg 1">
        <g transform="matrix(0.26458333,0,0,0.26458333,26.288175,-40.578078)" id="logo-center">
            <path d="" id="path874" style="fill:#000000;stroke-width:0.529704" />
            <g style="font-style:normal;font-weight:normal;font-size:32px;line-height:1;font-family:'Open Sans';font-variant-ligatures:none;text-align:center;text-anchor:middle" id="tagline" />
            <g id="g1303">
                <g id="title" style="font-style:normal;font-weight:normal;font-size:72px;line-height:1;font-family:Fulbo;font-variant-ligatures:none;text-align:center;text-anchor:middle" aria-label="Getset">
                    <path id="path950308" style="font-style:normal;font-weight:normal;font-size:72px;line-height:1;font-family:Fulbo;font-variant-ligatures:none;text-align:center;text-anchor:middle;fill:#ea2735" d="m 411.43063,-31.392 c -1.512,0 -2.73601,1.296 -2.73601,2.88 v 4.824 c 0,1.656 1.22401,2.88 2.73601,2.88 h 7.19999 v 1.872 c 0,4.248 -3.312,8.208 -7.704,8.208 -4.392,0 -7.848,-4.248 -7.848,-8.496 v -14.328 c 0,-4.248 3.456,-8.496 7.848,-8.496 2.952,0 5.25601,1.08 7.128,3.168 0.79201,0.864 1.584,1.008 2.16,1.008 0.72,0 1.44,-0.288 2.01601,-0.936 l 2.952,-3.24 c 0.50399,-0.648 0.79199,-1.44 0.79199,-2.232 0,-0.792 -0.288,-1.512 -0.71999,-2.088 -3.456,-4.104 -8.64001,-6.408 -14.40001,-6.408 -10.44,0 -18.288,9.072 -18.288,19.224 v 14.328 c 0,10.152 7.848,19.224 18.288,19.224 10.296,0 18.216,-9.144 18.216,-19.224 V -27 c 0,-2.304 -1.8,-4.392 -4.17599,-4.392 z" transform="matrix(1.6666667,0,0,1.6666667,-522.17356,427.2)" />
                    <path id="path950310" style="font-style:normal;font-weight:normal;font-size:72px;line-height:1;font-family:Fulbo;font-variant-ligatures:none;text-align:center;text-anchor:middle;fill:#ea2735" d="m 467.18337,-40.032 c 1.51201,0 2.736,-1.296 2.736,-2.88 v -4.968 c 0,-1.656 -1.22399,-2.88 -2.736,-2.88 h -21.672 c -1.08,0 -2.15999,0.432 -2.88,1.296 -0.79199,0.792 -1.224,1.872 -1.224,3.024 v 42.12 c 0,2.304 1.728,4.32 4.104,4.32 h 21.672 c 1.51201,0 2.736,-1.224 2.736,-2.88 v -4.968 c 0,-1.584 -1.22399,-2.88 -2.736,-2.88 h -15.264 v -10.368 h 11.01601 c 1.512,0 2.73599,-1.224 2.73599,-2.808 v -4.824 c 0,-1.584 -1.22399,-2.808 -2.73599,-2.808 h -11.01601 v -8.496 z" transform="matrix(1.6666667,0,0,1.6666667,-497.17356,427.2)" />
                    <path id="path950312" style="font-style:normal;font-weight:normal;font-size:72px;line-height:1;font-family:Fulbo;font-variant-ligatures:none;text-align:center;text-anchor:middle;fill:#ea2735" d="m 512.19125,-47.88 c 0,-1.656 -1.224,-2.88 -2.736,-2.88 h -29.088 c -1.512,0 -2.736,1.224 -2.736,2.88 v 4.968 c 0,1.584 1.224,2.88 2.736,2.88 h 9.288 V -2.88 c 0,1.656 1.224,2.88 2.736,2.88 h 5.04 c 1.512,0 2.736,-1.224 2.736,-2.88 v -37.152 h 9.288 c 1.512,0 2.736,-1.296 2.736,-2.88 z" transform="matrix(1.6666667,0,0,1.6666667,-472.17356,427.2)" />
                    <g id="g872">
                        <path transform="matrix(1.6666667,0,0,1.6666667,-447.17356,427.2)" d="m 534.095,-9.576 c -2.448,0 -5.256,-1.008 -8.136,-2.952 h -0.072 c -0.504,-0.36 -1.08,-0.504 -1.656,-0.504 -1.008,0 -1.944,0.576 -2.376,1.584 l -2.232,4.248 c -0.576,1.152 -0.216,2.808 0.792,3.456 4.176,3.024 9.072,4.68 13.752,4.68 9.072,0 16.272,-6.192 16.272,-15.696 0,-6.12 -3.312,-11.088 -9.072,-13.608 -3.24,-1.368 -4.104,-1.728 -4.392,-1.8 -5.688,-2.52 -6.768,-4.176 -6.768,-6.48 0,-2.664 1.8,-4.392 4.824,-4.392 1.368,0 4.248,0.432 7.992,2.952 l 0.072,0.072 c 0.504,0.288 1.08,0.432 1.656,0.432 1.008,0 1.944,-0.576 2.376,-1.584 l 2.088,-4.248 c 0.576,-1.152 0.216,-2.736 -0.792,-3.456 -3.816,-2.952 -8.712,-4.68 -13.464,-4.68 -8.856,0 -15.192,6.264 -15.192,15.336 0,7.92 4.248,12.024 11.088,15.12 l 1.872,0.792 c 5.904,2.52 6.984,3.24 7.272,6.048 -0.072,2.88 -2.304,4.68 -5.904,4.68 z" style="font-style:normal;font-weight:normal;font-size:72px;line-height:1;font-family:Fulbo;font-variant-ligatures:none;text-align:center;text-anchor:middle;fill:#ea2735" id="path950314" />
                        <path transform="matrix(1.6666667,0,0,1.6666667,-422.17356,427.2)" d="m 586.99587,-40.032 c 1.51201,0 2.736,-1.296 2.736,-2.88 v -4.968 c 0,-1.656 -1.22399,-2.88 -2.736,-2.88 h -21.67199 c -1.08001,0 -2.16001,0.432 -2.88,1.296 -0.792,0.792 -1.22401,1.872 -1.22401,3.024 v 42.12 c 0,2.304 1.728,4.32 4.10401,4.32 h 21.67199 c 1.51201,0 2.736,-1.224 2.736,-2.88 v -4.968 c 0,-1.584 -1.22399,-2.88 -2.736,-2.88 h -15.264 v -10.368 h 11.01601 c 1.51199,0 2.73599,-1.224 2.73599,-2.808 v -4.824 c 0,-1.584 -1.224,-2.808 -2.73599,-2.808 h -11.01601 v -8.496 z" style="font-style:normal;font-weight:normal;font-size:72px;line-height:1;font-family:Fulbo;font-variant-ligatures:none;text-align:center;text-anchor:middle;fill:#ea2735" id="path950316" />
                        <path transform="matrix(1.6666667,0,0,1.6666667,-397.17356,427.2)" d="m 632.00375,-47.88 c 0,-1.656 -1.224,-2.88 -2.736,-2.88 h -29.088 c -1.512,0 -2.736,1.224 -2.736,2.88 v 4.968 c 0,1.584 1.224,2.88 2.736,2.88 h 9.288 V -2.88 c 0,1.656 1.224,2.88 2.736,2.88 h 5.04 c 1.512,0 2.736,-1.224 2.736,-2.88 v -37.152 h 9.288 c 1.512,0 2.736,-1.296 2.736,-2.88 z" style="font-style:normal;font-weight:normal;font-size:72px;line-height:1;font-family:Fulbo;font-variant-ligatures:none;text-align:center;text-anchor:middle;fill:#ea2735" id="path950318" />
                    </g>
                </g>
                <g id="g1286" transform="translate(0.25253814,3.2829958)">
                    <path sodipodi:nodetypes="cccccc" id="path1252" d="m 106.30954,396.15777 -28.415177,28.05804 -42.834821,-42.52233 1.71875,-26.71875 26.763393,-1.85268 z" style="fill:none;fill-opacity:1;stroke:#f16040;stroke-width:3.77953;stroke-linecap:butt;stroke-linejoin:round;stroke-miterlimit:4;stroke-dasharray:none;stroke-opacity:1" />
                    <text transform="matrix(0.69555808,0.71345452,-0.75087672,0.66749798,0,0)" id="text1256" y="229.77225" x="322.21469" style="font-size:26.1678px;line-height:1.25;font-family:sans-serif;fill:#f16040;fill-opacity:1;stroke:none;stroke-width:1.22662;stroke-opacity:0.94902" xml:space="preserve">
                        <tspan style="fill:#f16040;fill-opacity:1;stroke:none;stroke-width:1.22662;stroke-opacity:0.94902" y="229.77225" x="322.21469" id="tspan1254" sodipodi:role="line">%</tspan>
                    </text>
                    <circle r="3.852999" cy="364.32742" cx="46.220253" id="path1258" style="fill:none;stroke:#f16040;stroke-width:1.1065;stroke-opacity:1" />
                    <path sodipodi:nodetypes="cscc" id="path1260" d="m 42.53722,365.37652 c 0,0 6.436672,-1.69751 6.294643,-10.625 -0.09375,-5.89279 -8.355343,-5.82554 -11.071428,-10.53571 -1.0533,-1.82661 -0.580355,-4.06251 -0.08928,-6.60715" style="fill:none;stroke:#f16040;stroke-width:1.00157;stroke-linecap:round;stroke-linejoin:round;stroke-miterlimit:4;stroke-dasharray:none;stroke-opacity:1" />
                    <path sodipodi:nodetypes="cc" id="path1277" d="m 34.322935,365.19795 c -3.035714,-0.53572 -1.830357,-9.64286 -7.767858,-9.82143" style="fill:none;stroke:#f16040;stroke-width:1.00157;stroke-linecap:round;stroke-linejoin:round;stroke-miterlimit:4;stroke-dasharray:none;stroke-opacity:1;paint-order:normal" />
                </g>
            </g>
        </g>
        <g inkscape:label="Layer 1" id="layer2" inkscape:groupmode="layer" />
    </g>
</svg>
